<?xml version="1.0" encoding="UTF-8"?>
<svg width="221px" height="42px" viewBox="0 0 221 42" version="1.1" xmlns="http://www.w3.org/2000/svg" xmlns:xlink="http://www.w3.org/1999/xlink">
    <!-- Generator: Sketch 50.2 (55047) - http://www.bohemiancoding.com/sketch -->
    <title>logo</title>
    <desc>Created with Sketch.</desc>
    <defs></defs>
    <g id="Pre-Order" stroke="none" stroke-width="1" fill="none" fill-rule="evenodd">
        <g id="Pre-Order-V3.0" transform="translate(-160.000000, -30.000000)">
            <g id="logo" transform="translate(160.000000, 30.000000)">
                <g id="Humeds-logo" transform="translate(50.000000, 8.000000)" fill="#4A4A4A">
                    <path d="M2.87114934,22.1625686 C0.957370668,20.2472139 0,17.5025107 0,13.9289378 L0,0 L4.60827892,0 L4.60827892,13.7527252 C4.60827892,18.5961782 6.71122133,21.0162288 10.9180688,21.0162288 C15.1003683,21.0162288 17.1917587,18.5961782 17.1917587,13.7527252 L17.1917587,0 L21.7292818,0 L21.7292818,13.9289378 C21.7292818,17.5025107 20.7772058,20.2472139 18.8759417,22.1625686 C16.9732337,24.0793597 14.3080948,25.037037 10.8824502,25.037037 C7.45536163,25.037037 4.78540934,24.0793597 2.87114934,22.1625686" id="Fill-9"></path>
                    <polyline id="Fill-10" points="60.7886185 25.037037 60.752193 8.44071128 52.526348 22.1758695 50.4515526 22.1758695 42.2252219 8.65586953 42.2252219 25.037037 37.7900552 25.037037 37.7900552 0 41.6171592 0 51.5603442 16.5963258 61.3252873 0 65.1519055 0 65.1878453 25.037037 60.7886185 25.037037"></polyline>
                    <polyline id="Fill-11" points="101.088398 21.1389331 101.088398 25.037037 82.1933702 25.037037 82.1933702 0 100.585501 0 100.585501 3.89810396 86.8714314 3.89810396 86.8714314 10.4077336 99.0362478 10.4077336 99.0362478 14.2354133 86.8714314 14.2354133 86.8714314 21.1389331 101.088398 21.1389331"></polyline>
                    <path d="M125.026164,21.1029924 C126.858721,21.1029924 128.471178,20.7508711 129.863533,20.0476 C131.256373,19.3443288 132.327304,18.343333 133.077295,17.0426698 C133.826801,15.7434637 134.201554,14.2354133 134.201554,12.5180328 C134.201554,10.8021094 133.826801,9.2935733 133.077295,7.99436721 C132.327304,6.69467543 131.256373,5.69270827 129.863533,4.9889514 C128.471178,4.28616589 126.858721,3.93404462 125.026164,3.93404462 L118.95691,3.93404462 L118.95691,21.1029924 L125.026164,21.1029924 Z M114.314917,0 L125.239963,0 C127.906382,0 130.274162,0.518711068 132.344757,1.55564752 C134.415837,2.59258397 136.022476,4.05983691 137.165158,5.95497791 C138.307355,7.85109028 138.878453,10.0386134 138.878453,12.5180328 C138.878453,14.9984237 138.307355,17.1859468 137.165158,19.0820591 C136.022476,20.9772001 134.415837,22.4444531 132.344757,23.4813895 C130.274162,24.5188117 127.906382,25.037037 125.239963,25.037037 L114.314917,25.037037 L114.314917,0 Z" id="Fill-12"></path>
                    <path d="M156.144039,25.1693729 C154.442582,24.615785 153.095921,23.8812636 152.104972,22.9662989 L153.625589,19.3191891 C154.595424,20.1375578 155.783277,20.8068647 157.19236,21.3236775 C158.600066,21.841471 160.014658,22.0998774 161.434298,22.0998774 C163.192209,22.0998774 164.504447,21.7997926 165.371928,21.1971711 C166.23941,20.5960207 166.67315,19.8011881 166.67315,18.8141443 C166.67315,18.0913909 166.431265,17.4966148 165.946577,17.0268741 C165.46143,16.5576238 164.847768,16.1908534 164.104212,15.9250919 C163.361116,15.6608015 162.3463,15.359736 161.06252,15.0223857 C159.259628,14.5649033 157.800056,14.1079114 156.685641,13.6499387 C155.56939,13.1929467 154.611947,12.4760773 153.811478,11.5022725 C153.011926,10.5265064 152.611692,9.20848656 152.611692,7.54772277 C152.611692,6.15124941 152.967864,4.88128241 153.677454,3.73782178 C154.387045,2.59485149 155.456938,1.6862612 156.888053,1.01205092 C158.319168,0.337840641 160.070195,0 162.144347,0 C163.586018,0 165.005658,0.193682225 166.402808,0.577614333 C167.799958,0.963017445 169.005711,1.51660537 170.019608,2.23984913 L168.633474,5.88646865 C167.596628,5.23628477 166.515259,4.74300802 165.388452,4.40516737 C164.261644,4.06879774 163.168801,3.90061292 162.110382,3.90061292 C160.374502,3.90061292 159.085213,4.21344649 158.239304,4.83960396 C157.395231,5.46576143 156.972506,6.29589816 156.972506,7.33050448 C156.972506,8.0532579 157.21485,8.6431306 157.69862,9.10061292 C158.182849,9.5576049 158.79743,9.91898161 159.541444,10.1837624 C160.285,10.4485431 161.297979,10.750099 162.583596,11.0864686 C164.341507,11.5194342 165.78272,11.9715229 166.910445,12.4407732 C168.036335,12.9095332 168.999744,13.6264026 169.800214,14.5889298 C170.599306,15.5519472 171,16.8523149 171,18.4895427 C171,19.8855257 170.644746,21.1496087 169.934696,22.2803206 C169.225565,23.4129939 168.149245,24.3157001 166.707115,24.9884394 C165.265444,25.6626497 163.507532,26 161.434298,26 C159.607997,26 157.845495,25.7229609 156.144039,25.1693729" id="Fill-13"></path>
                </g>
                <g id="H-logo">
                    <path d="M3.02688587,42 C1.35503591,42 0,40.6624559 0,39.0126323 L0,2.9873677 C0,1.3375441 1.35503591,0 3.02688587,0 L4.06873998,0 C5.74038815,0 7.09562585,1.3375441 7.09562585,2.9873677 L7.09562585,39.0126323 C7.09562585,40.6624559 5.74038815,42 4.06873998,42 L3.02688587,42 Z M29.93126,42 C28.2596118,42 26.9043741,40.6624559 26.9043741,39.0126323 L26.9043741,2.9873677 C26.9043741,1.3375441 28.2596118,0 29.93126,0 L30.9731141,0 C32.6447623,0 34,1.3375441 34,2.9873677 L34,39.0126323 C34,40.6624559 32.6447623,42 30.9731141,42 L29.93126,42 Z" id="H-Logo" fill="#2BAAA1"></path>
                    <path d="M13.3564366,18.1596392 C13.4880052,18.1867248 13.6201792,18.2116033 13.7527568,18.2350774 C14.7395216,18.5077382 15.4643599,19.4051716 15.4643599,20.4729427 C15.4643599,21.682361 14.5353077,22.6752958 13.3481631,22.8143348 C0.855599739,24.3572058 0,34.5333333 0,34.5333333 L0,6.53333333 C0,6.53333333 4.48120363,16.3328719 13.3481631,18.159238 C13.2749125,18.1524164 13.2010564,18.1480025 13.1259897,18.1480025 C13.2038815,18.1480025 13.2807644,18.1522158 13.3564366,18.1596392 Z M20.6433616,18.1596392 C20.7192356,18.1522158 20.7961185,18.1480025 20.8738085,18.1480025 C20.7987418,18.1480025 20.7248857,18.1524164 20.6518369,18.159238 C29.5185946,16.3328719 34,6.53333333 34,6.53333333 L34,34.5333333 C34,34.5333333 33.1441985,24.3572058 20.6518369,22.8143348 C19.4646923,22.6752958 18.5356401,21.682361 18.5356401,20.4729427 C18.5356401,19.4051716 19.2604784,18.5077382 20.2470414,18.2350774 C20.3798208,18.2116033 20.5119948,18.1867248 20.6433616,18.1596392 Z" fill="#4ED8B9"></path>
                </g>
            </g>
        </g>
    </g>
</svg>